<svg width="31" height="31" viewBox="0 0 31 31" fill="none" xmlns="http://www.w3.org/2000/svg">
<g clip-path="url(#clip0_1_59)">
<path d="M2.5538 20.4457C2.28576 20.4457 2.06586 20.6656 2.06586 20.9337C2.06586 21.2017 2.28576 21.4216 2.5538 21.4216C2.82184 21.4216 3.04175 21.2017 3.04175 20.9337C3.04175 20.6656 2.82184 20.4457 2.5538 20.4457Z" fill="black"/>
<path d="M25.8549 7.50731C24.4735 7.50731 23.1469 8.07131 22.1799 9.06052H5.11275V9.02819C5.11275 8.47503 4.66277 8.02505 4.10961 8.02505H1.00314C0.449984 8.02505 0 8.47503 0 9.02819V22.4896C0 23.0427 0.449984 23.4927 1.00314 23.4927H4.10961C4.66277 23.4927 5.11275 23.0427 5.11275 22.4896V22.4572H14.8944C16.0285 22.4572 16.9614 21.6096 17.0181 20.5275C17.0402 20.1057 16.9357 19.6998 16.72 19.3507H16.9654C18.0995 19.3507 19.0324 18.5031 19.0891 17.421C19.1112 16.9992 19.0067 16.5933 18.791 16.2443H22.1801C23.1471 17.2335 24.4735 17.7975 25.855 17.7975C28.692 17.7975 31.0001 15.4894 31.0001 12.6524C31.0001 9.81542 28.6918 7.50731 25.8549 7.50731ZM4.14194 22.4896C4.14194 22.5074 4.12747 22.5219 4.10961 22.5219H1.00314C0.985277 22.5219 0.970807 22.5074 0.970807 22.4896V9.02819C0.970807 9.01033 0.985277 8.99586 1.00314 8.99586H4.10961C4.12747 8.99586 4.14194 9.01033 4.14194 9.02819V22.4896ZM17.0532 15.2735C16.7851 15.2735 16.5678 15.4908 16.5678 15.7589C16.5678 16.0269 16.7851 16.2443 17.0532 16.2443C17.349 16.2443 17.6242 16.3625 17.828 16.5772C18.0316 16.7917 18.1351 17.0733 18.1195 17.3702C18.0903 17.927 17.5726 18.3799 16.9653 18.3799H14.9822C14.7141 18.3799 14.4968 18.5972 14.4968 18.8653C14.4968 19.1334 14.7141 19.3507 14.9822 19.3507C15.278 19.3507 15.5532 19.469 15.757 19.6837C15.9605 19.8982 16.0641 20.1798 16.0485 20.4767C16.0193 21.0335 15.5016 21.4864 14.8943 21.4864H5.11275V10.0313H23.7839C24.3727 10.0313 24.8518 10.5104 24.8518 11.0992C24.8518 11.688 24.3727 12.1671 23.7839 12.1671H16.5354C16.2674 12.1671 16.05 12.3844 16.05 12.6525C16.05 12.9206 16.2673 13.1379 16.5354 13.1379H23.7839C24.3727 13.1379 24.8517 13.6169 24.8517 14.2057C24.8517 14.7945 24.3727 15.2736 23.7839 15.2736H17.0532V15.2735ZM25.8549 16.8267C25.1048 16.8267 24.3746 16.621 23.738 16.2443H23.7839C24.3435 16.2443 24.8509 16.0176 25.2197 15.6513C25.4377 15.7014 25.6476 15.7265 25.8549 15.7265C27.5499 15.7265 28.9289 14.3475 28.9289 12.6525C28.9289 10.9575 27.5499 9.57838 25.8548 9.57838C25.6475 9.57838 25.4376 9.6035 25.2196 9.65358C24.8508 9.28733 24.3434 9.06064 23.7839 9.06064H23.738C24.3746 8.68392 25.1048 8.47818 25.8548 8.47818C28.1565 8.47818 30.0291 10.3508 30.0291 12.6525C30.0291 14.9543 28.1565 16.8267 25.8549 16.8267ZM25.7478 10.5538C25.7837 10.5515 25.8196 10.5491 25.8549 10.5491C27.0146 10.5491 27.9582 11.4926 27.9582 12.6524C27.9582 13.8122 27.0146 14.7557 25.8549 14.7557C25.8197 14.7557 25.7837 14.7532 25.7478 14.7509C25.7961 14.5772 25.8225 14.3946 25.8225 14.2057C25.8225 13.5841 25.5429 13.0266 25.1029 12.6525C25.5429 12.2783 25.8225 11.7208 25.8225 11.0993C25.8225 10.9103 25.7961 10.7276 25.7478 10.5538Z" fill="black"/>
</g>
<defs>
<clipPath id="clip0_1_59">
<rect width="31" height="31" fill="white"/>
</clipPath>
</defs>
</svg>
