<svg width="24" height="24" viewBox="0 0 24 24" fill="none" xmlns="http://www.w3.org/2000/svg">
<path d="M4.36306 21.2354V20.0006C4.36306 19.5273 4.07493 19.2186 3.581 19.2186C3.33403 19.2186 3.06649 19.3009 2.88126 19.5684C2.7372 19.342 2.5314 19.2186 2.22269 19.2186C2.01689 19.2186 1.81108 19.2803 1.64644 19.5067V19.2597H1.21425V21.2354H1.64644V20.1447C1.64644 19.7948 1.83166 19.6302 2.11979 19.6302C2.40791 19.6302 2.55198 19.8154 2.55198 20.1447V21.2354H2.98417V20.1447C2.98417 19.7948 3.18997 19.6302 3.45752 19.6302C3.74564 19.6302 3.88971 19.8154 3.88971 20.1447V21.2354H4.36306ZM10.7636 19.2597H10.0638V18.6629H9.63165V19.2597H9.24062V19.6507H9.63165V20.5563C9.63165 21.0091 9.81687 21.2766 10.3108 21.2766C10.496 21.2766 10.7018 21.2149 10.8459 21.1325L10.7224 20.7621C10.5989 20.8444 10.4549 20.865 10.352 20.865C10.1462 20.865 10.0638 20.7415 10.0638 20.5357V19.6507H10.7636V19.2597ZM14.4269 19.2186C14.1799 19.2186 14.0153 19.342 13.9124 19.5067V19.2597H13.4802V21.2354H13.9124V20.1241C13.9124 19.7948 14.0564 19.6096 14.324 19.6096C14.4063 19.6096 14.5092 19.6302 14.5915 19.6507L14.715 19.2391C14.6327 19.2186 14.5092 19.2186 14.4269 19.2186ZM8.89075 19.4244C8.68495 19.2803 8.39682 19.2186 8.08812 19.2186C7.59419 19.2186 7.2649 19.4655 7.2649 19.8566C7.2649 20.1858 7.51186 20.3711 7.94405 20.4328L8.14986 20.4534C8.37624 20.4945 8.49973 20.5563 8.49973 20.6592C8.49973 20.8033 8.33508 20.9062 8.04696 20.9062C7.75883 20.9062 7.53244 20.8033 7.38838 20.7004L7.18258 21.0296C7.40896 21.1943 7.71767 21.2766 8.02637 21.2766C8.60263 21.2766 8.93191 21.0091 8.93191 20.6386C8.93191 20.2887 8.66437 20.1035 8.25276 20.0418L8.04696 20.0212C7.86173 20.0006 7.71767 19.9595 7.71767 19.836C7.71767 19.6919 7.86173 19.6096 8.08812 19.6096C8.33508 19.6096 8.58205 19.7125 8.70553 19.7742L8.89075 19.4244ZM20.3746 19.2186C20.1277 19.2186 19.963 19.342 19.8601 19.5067V19.2597H19.4279V21.2354H19.8601V20.1241C19.8601 19.7948 20.0042 19.6096 20.2717 19.6096C20.3541 19.6096 20.457 19.6302 20.5393 19.6507L20.6628 19.2391C20.5804 19.2186 20.457 19.2186 20.3746 19.2186ZM14.8591 20.2476C14.8591 20.8444 15.2707 21.2766 15.9087 21.2766C16.1968 21.2766 16.4026 21.2149 16.6084 21.0502L16.4026 20.7004C16.238 20.8238 16.0733 20.8856 15.8881 20.8856C15.5382 20.8856 15.2913 20.6386 15.2913 20.2476C15.2913 19.8771 15.5382 19.6302 15.8881 19.6096C16.0733 19.6096 16.238 19.6713 16.4026 19.7948L16.6084 19.4449C16.4026 19.2803 16.1968 19.2186 15.9087 19.2186C15.2707 19.2186 14.8591 19.6507 14.8591 20.2476ZM18.8517 20.2476V19.2597H18.4195V19.5067C18.2754 19.3215 18.0696 19.2186 17.8021 19.2186C17.2464 19.2186 16.8142 19.6507 16.8142 20.2476C16.8142 20.8444 17.2464 21.2766 17.8021 21.2766C18.0902 21.2766 18.296 21.1737 18.4195 20.9885V21.2354H18.8517V20.2476ZM17.267 20.2476C17.267 19.8977 17.4934 19.6096 17.8638 19.6096C18.2137 19.6096 18.4607 19.8771 18.4607 20.2476C18.4607 20.5974 18.2137 20.8856 17.8638 20.8856C17.4934 20.865 17.267 20.5974 17.267 20.2476ZM12.1013 19.2186C11.5251 19.2186 11.1134 19.6302 11.1134 20.2476C11.1134 20.865 11.5251 21.2766 12.1219 21.2766C12.41 21.2766 12.6981 21.1943 12.9245 21.0091L12.7187 20.7004C12.5541 20.8238 12.3483 20.9062 12.1425 20.9062C11.8749 20.9062 11.6074 20.7827 11.5456 20.4328H13.0068V20.2682C13.0274 19.6302 12.657 19.2186 12.1013 19.2186ZM12.1013 19.589C12.3688 19.589 12.5541 19.7536 12.5952 20.0624H11.5662C11.6074 19.7948 11.7926 19.589 12.1013 19.589ZM22.8237 20.2476V18.4777H22.3915V19.5067C22.2475 19.3215 22.0417 19.2186 21.7741 19.2186C21.2184 19.2186 20.7862 19.6507 20.7862 20.2476C20.7862 20.8444 21.2184 21.2766 21.7741 21.2766C22.0622 21.2766 22.268 21.1737 22.3915 20.9885V21.2354H22.8237V20.2476ZM21.239 20.2476C21.239 19.8977 21.4654 19.6096 21.8359 19.6096C22.1857 19.6096 22.4327 19.8771 22.4327 20.2476C22.4327 20.5974 22.1857 20.8856 21.8359 20.8856C21.4654 20.865 21.239 20.5974 21.239 20.2476ZM6.79155 20.2476V19.2597H6.35936V19.5067C6.2153 19.3215 6.00949 19.2186 5.74195 19.2186C5.18627 19.2186 4.75408 19.6507 4.75408 20.2476C4.75408 20.8444 5.18627 21.2766 5.74195 21.2766C6.03007 21.2766 6.23588 21.1737 6.35936 20.9885V21.2354H6.79155V20.2476ZM5.18627 20.2476C5.18627 19.8977 5.41266 19.6096 5.78311 19.6096C6.13297 19.6096 6.37994 19.8771 6.37994 20.2476C6.37994 20.5974 6.13297 20.8856 5.78311 20.8856C5.41266 20.865 5.18627 20.5974 5.18627 20.2476Z" fill="black"/>
<path d="M15.2295 4.25658H8.74669V15.9051H15.2295V4.25658Z" fill="#FF5F00"/>
<path d="M9.1583 10.0808C9.1583 7.71407 10.2696 5.61486 11.9778 4.25655C10.7224 3.26869 9.13772 2.67186 7.40896 2.67186C3.31345 2.67186 0 5.98531 0 10.0808C0 14.1763 3.31345 17.4898 7.40896 17.4898C9.13772 17.4898 10.7224 16.8929 11.9778 15.9051C10.2696 14.5674 9.1583 12.4476 9.1583 10.0808Z" fill="#EB001B"/>
<path d="M23.9762 10.0808C23.9762 14.1763 20.6628 17.4898 16.5673 17.4898C14.8385 17.4898 13.2538 16.893 11.9984 15.9051C13.7272 14.5468 14.8179 12.4476 14.8179 10.0808C14.8179 7.71408 13.7066 5.61488 11.9984 4.25657C13.2538 3.26871 14.8385 2.67188 16.5673 2.67188C20.6628 2.67188 23.9762 6.00591 23.9762 10.0808Z" fill="#F79E1B"/>
</svg>
