<svg width="50" height="50" viewBox="0 0 50 50" fill="none" xmlns="http://www.w3.org/2000/svg">
<g clip-path="url(#clip0_1_51)">
<path d="M10.7936 19.8622C10.2552 19.4921 9.55263 19.3065 8.6859 19.3065H5.33039C5.06468 19.3065 4.91789 19.4394 4.89 19.7049L3.52686 28.2613C3.5127 28.3453 3.53372 28.4222 3.58975 28.4921C3.64545 28.5621 3.71552 28.5969 3.79943 28.5969H5.39327C5.67282 28.5969 5.82648 28.4644 5.85468 28.1985L6.23212 25.8917C6.2459 25.7799 6.29507 25.689 6.37898 25.619C6.46282 25.5492 6.5677 25.5034 6.69353 25.4825C6.81936 25.4617 6.93802 25.4513 7.05007 25.4513C7.1618 25.4513 7.29455 25.4583 7.44859 25.4722C7.60225 25.4862 7.7002 25.493 7.74218 25.493C8.94449 25.493 9.88821 25.1542 10.5734 24.476C11.2583 23.798 11.6011 22.8578 11.6011 21.6552C11.6011 20.8303 11.3317 20.2326 10.7936 19.8619V19.8622ZM9.06347 22.4314C8.99334 22.9208 8.8118 23.2422 8.51821 23.3961C8.22456 23.5501 7.80513 23.6267 7.25994 23.6267L6.56782 23.6477L6.92443 21.4037C6.95225 21.25 7.04308 21.1731 7.19699 21.1731H7.59558C8.15455 21.1731 8.56026 21.2537 8.81193 21.4142C9.06347 21.5751 9.14738 21.9143 9.06347 22.4314Z" fill="#003087"/>
<path d="M46.2045 19.3064H44.6527C44.4985 19.3064 44.4078 19.3833 44.3801 19.5371L43.0168 28.2615L42.9958 28.3034C42.9958 28.3737 43.0238 28.4397 43.0798 28.5027C43.1355 28.5655 43.2056 28.597 43.2895 28.597H44.6738C44.939 28.597 45.0859 28.4644 45.1142 28.1986L46.4774 19.621V19.6002C46.4772 19.4045 46.3861 19.3066 46.2045 19.3066V19.3064Z" fill="#009CDE"/>
<path d="M27.4558 22.6833C27.4558 22.6136 27.4277 22.547 27.3721 22.4842C27.316 22.4213 27.253 22.3897 27.1833 22.3897H25.5685C25.4144 22.3897 25.2886 22.46 25.1909 22.5994L22.9679 25.8712L22.0452 22.7254C21.9749 22.5018 21.8213 22.3897 21.5838 22.3897H20.0107C19.9406 22.3897 19.8777 22.4213 19.8221 22.4842C19.766 22.547 19.7382 22.6137 19.7382 22.6833C19.7382 22.7115 19.8746 23.1238 20.1471 23.9207C20.4197 24.7178 20.7133 25.5776 21.028 26.5004C21.3426 27.4231 21.5067 27.9127 21.5208 27.9683C20.3742 29.5343 19.8012 30.3733 19.8012 30.4849C19.8012 30.6669 19.892 30.7576 20.0738 30.7576H21.6886C21.8424 30.7576 21.9681 30.6879 22.0662 30.5479L27.414 22.83C27.4418 22.8022 27.4558 22.7535 27.4558 22.6833V22.6833Z" fill="#003087"/>
<path d="M42.4929 22.3897H40.899C40.7031 22.3897 40.5847 22.6205 40.5427 23.0819C40.1788 22.5229 39.5151 22.2429 38.5502 22.2429C37.5435 22.2429 36.6871 22.6205 35.9812 23.3755C35.275 24.1305 34.9221 25.0185 34.9221 26.039C34.9221 26.864 35.1632 27.5211 35.6455 28.0103C36.1278 28.4999 36.7744 28.7443 37.5856 28.7443C37.991 28.7443 38.4034 28.6603 38.8228 28.4926C39.2423 28.3249 39.5706 28.1013 39.8087 27.8215C39.8087 27.8356 39.7944 27.8983 39.7667 28.0101C39.7385 28.1222 39.7247 28.2063 39.7247 28.2618C39.7247 28.4858 39.8154 28.5973 39.9974 28.5973H41.4446C41.7099 28.5973 41.8639 28.4648 41.9057 28.1989L42.7656 22.7252C42.7794 22.6413 42.7585 22.5645 42.7028 22.4945C42.6466 22.4248 42.5769 22.3897 42.4929 22.3897ZM39.7562 26.5213C39.3996 26.8708 38.9697 27.0456 38.4664 27.0456C38.0608 27.0456 37.7325 26.9339 37.4807 26.7101C37.2289 26.4868 37.1031 26.1792 37.1031 25.7873C37.1031 25.2703 37.2779 24.8331 37.6275 24.4766C37.9766 24.1201 38.4105 23.9418 38.9278 23.9418C39.3189 23.9418 39.644 24.0572 39.9029 24.2878C40.1613 24.5185 40.291 24.8367 40.291 25.2421C40.291 25.7454 40.1126 26.1719 39.7562 26.5213Z" fill="#009CDE"/>
<path d="M18.6686 22.3897H17.0747C16.8787 22.3897 16.7601 22.6205 16.7181 23.0819C16.3406 22.5229 15.6765 22.2429 14.7258 22.2429C13.7191 22.2429 12.8626 22.6205 12.1567 23.3755C11.4505 24.1305 11.0976 25.0185 11.0976 26.039C11.0976 26.864 11.3388 27.5211 11.8212 28.0103C12.3036 28.4999 12.9501 28.7443 13.7611 28.7443C14.1524 28.7443 14.5581 28.6603 14.9774 28.4926C15.3969 28.3249 15.7324 28.1013 15.9841 27.8215C15.928 27.9892 15.9002 28.1361 15.9002 28.2618C15.9002 28.4858 15.991 28.5973 16.1728 28.5973H17.6199C17.8853 28.5973 18.0393 28.4648 18.0813 28.1989L18.9411 22.7252C18.9549 22.6413 18.9339 22.5645 18.8782 22.4945C18.8222 22.4248 18.7524 22.3897 18.6686 22.3897ZM15.9317 26.5317C15.5751 26.8747 15.138 27.0456 14.621 27.0456C14.2153 27.0456 13.8903 26.9339 13.6458 26.7101C13.401 26.4868 13.2787 26.1792 13.2787 25.7873C13.2787 25.2703 13.4534 24.8331 13.8031 24.4766C14.1524 24.1201 14.5858 23.9418 15.1033 23.9418C15.4946 23.9418 15.8197 24.0572 16.0786 24.2878C16.337 24.5185 16.4665 24.8367 16.4665 25.2422C16.4665 25.7594 16.2883 26.1895 15.9317 26.5317Z" fill="#003087"/>
<path d="M34.6179 19.8622C34.0796 19.4921 33.3772 19.3065 32.5103 19.3065H29.1757C28.896 19.3065 28.742 19.4394 28.7144 19.7049L27.3511 28.2613C27.337 28.3454 27.3579 28.4222 27.414 28.4921C27.4695 28.5621 27.5398 28.5969 27.6237 28.5969H29.3433C29.5111 28.5969 29.6229 28.5062 29.6789 28.3244L30.0565 25.8917C30.0703 25.7799 30.1193 25.689 30.2033 25.619C30.2872 25.5492 30.3919 25.5035 30.5179 25.4825C30.6436 25.4617 30.7622 25.4513 30.8744 25.4513C30.9861 25.4513 31.1189 25.4583 31.2728 25.4722C31.4265 25.4862 31.5247 25.493 31.5663 25.493C32.7689 25.493 33.7124 25.1542 34.3976 24.476C35.0828 23.798 35.4253 22.8578 35.4253 21.6552C35.4254 20.8304 35.1561 20.2327 34.6179 19.862V19.8622ZM32.4683 23.3122C32.1607 23.5219 31.6993 23.6267 31.0842 23.6267L30.4131 23.6477L30.7696 21.4037C30.7973 21.25 30.8881 21.1731 31.0422 21.1731H31.4195C31.7271 21.1731 31.9717 21.1871 32.1538 21.2149C32.3353 21.2431 32.5103 21.3303 32.6781 21.4771C32.8459 21.6239 32.9297 21.8372 32.9297 22.1168C32.9297 22.704 32.7758 23.1024 32.4683 23.3122Z" fill="#009CDE"/>
</g>
<defs>
<clipPath id="clip0_1_51">
<rect width="50" height="50" fill="white"/>
</clipPath>
</defs>
</svg>
