<svg width="30" height="30" viewBox="0 0 30 30" fill="none" xmlns="http://www.w3.org/2000/svg">
<path d="M13.3213 18.9592H11.2611L12.5487 11.0463H14.6091L13.3213 18.9592ZM9.52798 11.0463L7.56392 16.4889L7.33151 15.3169L7.33173 15.3173L6.63852 11.7587C6.63852 11.7587 6.5547 11.0463 5.66125 11.0463H2.41428L2.37617 11.1803C2.37617 11.1803 3.36911 11.3868 4.53116 12.0847L6.32101 18.9594H8.46753L11.7452 11.0463H9.52798ZM25.7322 18.9592H27.6238L25.9745 11.0461H24.3184C23.5537 11.0461 23.3674 11.6358 23.3674 11.6358L20.2949 18.9592H22.4424L22.8719 17.7838H25.4909L25.7322 18.9592ZM23.4652 16.1601L24.5477 13.1989L25.1566 16.1601H23.4652ZM20.4559 12.9492L20.7499 11.2499C20.7499 11.2499 19.8427 10.9049 18.897 10.9049C17.8747 10.9049 15.4468 11.3517 15.4468 13.5245C15.4468 15.5687 18.2963 15.5941 18.2963 16.6679C18.2963 17.7417 15.7404 17.5493 14.8969 16.8722L14.5906 18.6489C14.5906 18.6489 15.5105 19.0958 16.916 19.0958C18.3219 19.0958 20.4428 18.3678 20.4428 16.3866C20.4428 14.3292 17.5677 14.1377 17.5677 13.2432C17.5679 12.3484 19.5743 12.4634 20.4559 12.9492Z" fill="#2566AF"/>
<path d="M7.33173 15.3171L6.63852 11.7585C6.63852 11.7585 6.5547 11.0461 5.66125 11.0461H2.41428L2.37617 11.1801C2.37617 11.1801 3.9368 11.5035 5.43371 12.7153C6.865 13.8735 7.33173 15.3171 7.33173 15.3171Z" fill="#E6A540"/>
</svg>
